<svg id="Layer_1" data-name="Layer 1" xmlns="http://www.w3.org/2000/svg" viewBox="0 0 614.06 841.43"><defs><style>.cls-1{isolation:isolate;}.cls-2{fill:#44d1fd;}.cls-3{fill:#1fbcfd;}.cls-4{fill:#08589c;}</style></defs><path class="cls-1" d="M.16,683.87l89,0v17.53c-23.29,0-46.59-.07-69.89,0-1.78.59-.94,2.82-1.14,4.19l.07,47.15c.59,1.77,2.83.92,4.21,1.14l59.76,0v17.51H26.46a47.68,47.68,0,0,0-8.28.29L18,838.27c-6-.24-12,0-18-.15V686.7Zm110.62,0h18.28V788.66l-.2,49.33c-6-.11-11.9-.14-17.84,0a39.57,39.57,0,0,1-.27-7.38Zm178.92,13H308l0,31c9,.22,18-.4,26.94.31-.25,5.56,0,11.12-.14,16.68-8.92,0-17.83.09-26.74,0l-.07,61.74c.19,5.72,1.41,12.63,7,15.58,6.35,3.61,14.15,1.91,20.16-1.57v18c-6.62,3-14.17,3.36-21.28,2.39-10-1.53-19.62-8.36-22.65-18.29-2-5.44-1.55-11.31-1.59-17l0-60.13-.45-.51c-6.33-.34-12.68.05-19-.17,0-5.66-.22-11.32.14-17,6.44-.11,12.91.29,19.34-.2l.06-30.8Zm77.48-.06c6.1.21,12.2-.07,18.29.14l.42.46c.23,10.18-.31,20.39.24,30.55,8.69-.16,17.38,0,26.06-.08l.06,16.86c-8.74.33-17.51.13-26.25.08l-.1,62.81c0,5.47,1.57,11.94,6.86,14.63,6.49,3.54,14.36,1.72,20.39-1.9l0,18.06c-6.43,2.9-13.68,3.46-20.62,2.66-9-1.2-17.83-6.29-22.06-14.54a36,36,0,0,1-3.37-13.87V744.91c-6.33,0-12.65,0-19,0l0-17.07c6.23.17,12.46-.05,18.69.16.66-10.36,0-20.79.34-31.17Zm89,31.65a57.64,57.64,0,0,1,40.2-1c14.81,5.11,26.27,18,30.47,33,2.75,8.31,2.64,17.14,2.25,25.78l-87.05.09c.72,9.27,3.49,18.72,9.93,25.68,9.15,10.67,24.9,14.63,38.2,10.44,9.33-2.75,16.61-9.93,21.4-18.18,5.3,2.37,10.45,5.07,15.73,7.5-7.22,13.76-20.35,24.69-35.78,27.65-12.67,2.37-26.53,2.43-38.15-3.83-15.08-7.49-25.46-22.74-28.42-39.14-2.15-12.6-1.48-25.93,3.26-37.89,5-13.13,15-24.5,28-30.17m6.89,15.81c-10.65,4.92-17.51,15.85-19.65,27.13l66.76-.21c-1.06-7.37-3.68-14.86-9.08-20.19C491.66,740.88,475.49,738.9,463.09,744.29Zm105.66,1.45c7-16.93,28.38-25.82,45.31-18.73v19.76c-7.11-2.8-15.08-4.53-22.59-2.32-10.26,3-17.85,12.2-20.76,22.27-2,6.8-1.25,13.9-1.17,20.87-.78,9,.39,18-.2,27.07.48,7.79-.42,15.58.24,23.38-6.22.3-12.44,0-18.65.19-.36-23.51,0-47-.15-70.55l.14-39.59c5.83.16,11.67,0,17.51.12.53,5.84-.65,11.71.32,17.53ZM155.28,727.87c6.2.26,12.45-.37,18.62.33l-.09,65.54c-.06,8,1.08,16.76,6.62,23,7.15,7.92,19.26,9.37,29,6.24,13.07-4.68,22.19-18.52,21.66-32.36l.2-62.73,18.67,0L249.89,838c-5.92-.1-11.83,0-17.74-.07l-.07-15.66c-3.83,4.81-7.85,9.68-13.34,12.71-11.24,7.09-25.5,8-38.09,4.4a33,33,0,0,1-19.26-15.58c-4.83-8.18-6-17.85-6.33-27.17l.22-68.72Z"/><path class="cls-2" d="M366.27.21,559.71,0,235.17,324.38l-84.59,84.11L54.35,312.13Zm-1.8,289.63c2.51-3.31,7.13-1.68,10.63-2.1l184.45,0L391.45,455.72l-96.74-96.14Z"/><path class="cls-3" d="M198.29,455.88l96.42-96.3,96.74,96.14.4.42-97.11,96.22-96.45-96.48Z"/><path class="cls-4" d="M294.74,552.36l97.11-96.22L559.62,624.08c-63.2.14-126.37-.05-189.54.09-3.6.81-5.82-2.49-8.12-4.52l-67.22-67.29Z"/></svg>