<svg id="Layer_1" data-name="Layer 1" xmlns="http://www.w3.org/2000/svg" xmlns:xlink="http://www.w3.org/1999/xlink" viewBox="0 0 175 175"><defs><style>.cls-1{fill:none;}.cls-2{clip-path:url(#clip-path);}.cls-3{fill:url(#radial-gradient);}.cls-4{fill:#777bb3;}.cls-5{fill:#fff;}</style><clipPath id="clip-path"><path class="cls-1" d="M0,87.5c0,25.42,39.18,46,87.5,46h0c48.32,0,87.5-20.61,87.5-46h0c0-25.42-39.18-46-87.5-46h0C39.18,41.47,0,62.08,0,87.5"/></clipPath><radialGradient id="radial-gradient" cx="-670.88" cy="374.1" r="0.25" gradientTransform="matrix(453.82, 0, 0, -453.82, 304514.13, 169832.89)" gradientUnits="userSpaceOnUse"><stop offset="0" stop-color="#aeb2d5"/><stop offset="0.3" stop-color="#aeb2d5"/><stop offset="0.75" stop-color="#484c89"/><stop offset="1" stop-color="#484c89"/></radialGradient></defs><g id="g3440"><g class="cls-2"><g id="g3442"><g id="g3448"><g id="g3450"><path id="path3462" class="cls-3" d="M0,87.5c0,25.42,39.18,46,87.5,46h0c48.32,0,87.5-20.61,87.5-46h0c0-25.42-39.18-46-87.5-46h0C39.18,41.47,0,62.08,0,87.5"/></g></g></g></g></g><g id="g3466"><g id="g3472"><path id="path3474" class="cls-4" d="M87.5,130.11c46.44,0,84.08-19.08,84.08-42.61S133.94,44.89,87.5,44.89,3.42,64,3.42,87.5s37.64,42.61,84.08,42.61"/></g></g><g id="g3478"><g id="g3484"><path id="path3486" d="M47.54,92.78c3.82,0,6.67-.7,8.47-2.09s3-3.75,3.66-7.07c.61-3.11.38-5.27-.68-6.44s-3.41-1.8-6.93-1.8H46l-3.38,17.4Zm-20,21.44a.94.94,0,0,1-.73-.34,1,1,0,0,1-.2-.79l9-46.12a1,1,0,0,1,.94-.77H55.87c6.07,0,10.59,1.65,13.43,4.9S73,78.94,71.92,84.68a21.43,21.43,0,0,1-2.32,6.46,21.68,21.68,0,0,1-4.28,5.36,18.78,18.78,0,0,1-7,4.22A32.06,32.06,0,0,1,48.62,102H40.8l-2.24,11.5a1,1,0,0,1-.93.76Z"/></g><g id="g3488"><path id="path3490" class="cls-5" d="M46.74,76.33h5.32c4.25,0,5.73.93,6.23,1.48.83.93,1,2.87.45,5.63-.6,3.08-1.71,5.27-3.31,6.5s-4.29,1.89-7.89,1.89H43.73Zm9.13-11.08H36.55a1.91,1.91,0,0,0-1.87,1.54l-9,46.12a1.9,1.9,0,0,0,1.86,2.26H37.63a1.89,1.89,0,0,0,1.86-1.53l2.09-10.73h7a32.68,32.68,0,0,0,10-1.29A19.65,19.65,0,0,0,66,97.19a21.87,21.87,0,0,0,6.89-12.33C74,78.82,73.08,74,70,70.48s-7.79-5.23-14.15-5.23M41.43,93.73h6.11q6.08,0,9.05-2.29t4-7.64q1-5.14-.91-7.26t-7.64-2.11H45.18l-3.75,19.3M55.87,67.15q8.72,0,12.72,4.57T71,84.5a20.86,20.86,0,0,1-2.22,6.18,20.36,20.36,0,0,1-4.09,5.12,17.53,17.53,0,0,1-6.69,4,30.71,30.71,0,0,1-9.37,1.2H40l-2.38,12.26H27.58l9-46.12H55.87"/></g><g id="g3492"><path id="path3494" d="M95,102a.94.94,0,0,1-.93-1.13l4-20.41c.37-1.94.28-3.33-.26-3.92-.34-.36-1.34-1-4.31-1H86.24l-5,25.65a1,1,0,0,1-.93.77h-10a1,1,0,0,1-.74-.34.94.94,0,0,1-.19-.79l9-46.13a1,1,0,0,1,.93-.76h10a.94.94,0,0,1,.93,1.13L88.06,66.2h7.73c5.89,0,9.88,1,12.21,3.17s3.11,5.66,2.19,10.36L106,101.19a.94.94,0,0,1-.93.77Z"/></g><g id="g3496"><path id="path3498" class="cls-5" d="M89.29,53h-10a1.89,1.89,0,0,0-1.86,1.53l-9,46.13a1.9,1.9,0,0,0,1.87,2.26h10a1.89,1.89,0,0,0,1.86-1.54L87,76.48h6.4c3,0,3.58.64,3.61.66.18.2.42,1.09,0,3.1l-4,20.41A1.9,1.9,0,0,0,95,102.91h10.13a1.89,1.89,0,0,0,1.86-1.54l4.18-21.46c1-5,.14-8.82-2.49-11.24s-6.71-3.42-12.85-3.42H89.21l2-10a1.92,1.92,0,0,0-.4-1.57A1.89,1.89,0,0,0,89.29,53m0,1.89L86.91,67.15h8.88q8.38,0,11.56,2.92t1.91,9.48L105.09,101H95l4-20.41q.67-3.48-.5-4.75t-5-1.26h-8L80.33,101h-10l9-46.13h10"/></g><g id="g3500"><path id="path3502" d="M126,92.78c3.82,0,6.67-.7,8.47-2.09s3-3.75,3.66-7.07c.61-3.11.38-5.27-.68-6.44s-3.41-1.8-6.93-1.8h-6.1L121,92.78Zm-20,21.44a.94.94,0,0,1-.93-1.13L114,67a1,1,0,0,1,.94-.77H134.3c6.07,0,10.59,1.65,13.43,4.9s3.74,7.84,2.62,13.58A21.43,21.43,0,0,1,148,91.14a21.68,21.68,0,0,1-4.28,5.36,18.78,18.78,0,0,1-7,4.22,32.11,32.11,0,0,1-9.67,1.24h-7.83L117,113.46a1,1,0,0,1-.93.76Z"/></g><g id="g3504"><path id="path3506" class="cls-5" d="M125.17,76.33h5.32c4.25,0,5.73.93,6.23,1.48.83.93,1,2.87.45,5.63-.6,3.08-1.71,5.27-3.31,6.5s-4.29,1.89-7.89,1.89h-3.81Zm9.13-11.08H115a1.9,1.9,0,0,0-1.87,1.54l-9,46.12a1.88,1.88,0,0,0,.39,1.57,1.91,1.91,0,0,0,1.47.69h10a1.89,1.89,0,0,0,1.86-1.53L120,102.91h7a32.68,32.68,0,0,0,10-1.29,19.73,19.73,0,0,0,7.39-4.43,21.78,21.78,0,0,0,6.88-12.33c1.18-6,.23-10.88-2.83-14.38s-7.79-5.23-14.15-5.23M119.86,93.73H126q6.08,0,9.05-2.29t4-7.64q1-5.14-.9-7.26c-1.28-1.41-3.82-2.11-7.64-2.11h-6.88l-3.75,19.3M134.3,67.15q8.72,0,12.72,4.57t2.4,12.78a20.86,20.86,0,0,1-2.22,6.18,20.58,20.58,0,0,1-4.09,5.12,17.6,17.6,0,0,1-6.69,4,30.71,30.71,0,0,1-9.37,1.2h-8.61l-2.38,12.26H106l9-46.12H134.3"/></g></g></svg>