<svg id="selenium_logo" data-name="selenium logo" xmlns="http://www.w3.org/2000/svg" viewBox="0 0 126.19 143.69"><defs><style>.cls-1{fill:#01a71c;}</style></defs><path class="cls-1" d="M6.81,143.67a24.2,24.2,0,0,1-3.3-.26A32.44,32.44,0,0,1,0,142.73V141a33.76,33.76,0,0,0,3.47.68,22.9,22.9,0,0,0,3.21.25,7,7,0,0,0,4.21-1.07,3.59,3.59,0,0,0,1.47-3.07,3.69,3.69,0,0,0-1.59-3.19,8.12,8.12,0,0,0-1.66-.91c-.66-.25-1.38-.48-2.14-.7a21,21,0,0,1-3-1.12,7.46,7.46,0,0,1-2-1.34,4.65,4.65,0,0,1-1.15-1.72,6.29,6.29,0,0,1-.37-2.23A5.54,5.54,0,0,1,1,124.06a5.45,5.45,0,0,1,1.5-1.93,7,7,0,0,1,2.33-1.28,10.43,10.43,0,0,1,3-.37,26.19,26.19,0,0,1,5.65.73V123a24.92,24.92,0,0,0-2.86-.56,19.78,19.78,0,0,0-2.56-.2,6.27,6.27,0,0,0-3.95,1.16,3.72,3.72,0,0,0-1.56,3.1,4.09,4.09,0,0,0,.27,1.55,3.28,3.28,0,0,0,.9,1.28,6,6,0,0,0,1.62,1,18.12,18.12,0,0,0,2.57.88c.95.28,1.83.58,2.64.91a7.89,7.89,0,0,1,2.11,1.2,5.05,5.05,0,0,1,1.41,1.77,5.79,5.79,0,0,1,.52,2.56,5.32,5.32,0,0,1-2,4.46,9.19,9.19,0,0,1-5.78,1.52Z"/><path class="cls-1" d="M25.29,143.6a7,7,0,0,1-5.49-2.08,8.82,8.82,0,0,1-1.87-6,10.05,10.05,0,0,1,1.83-6.41,6.45,6.45,0,0,1,5.31-2.24,5.45,5.45,0,0,1,4.45,1.83A8.35,8.35,0,0,1,31,134v1.18a3.78,3.78,0,0,1-.12.82h-11a6.94,6.94,0,0,0,1.5,4.49,5.36,5.36,0,0,0,4.09,1.46,14,14,0,0,0,2.33-.22,15,15,0,0,0,2.47-.66l.16,1.62a13.41,13.41,0,0,1-2.57.71A14.35,14.35,0,0,1,25.29,143.6ZM25,128.36q-4.71,0-5,6.08h9.16a8.32,8.32,0,0,0-1-4.66A3.56,3.56,0,0,0,25,128.36Z"/><path class="cls-1" d="M35.57,118.84h2v24.49h-2Z"/><path class="cls-1" d="M49.56,143.6a6.94,6.94,0,0,1-5.48-2.08,8.83,8.83,0,0,1-1.86-6,10,10,0,0,1,1.83-6.41,6.43,6.43,0,0,1,5.31-2.24,5.43,5.43,0,0,1,4.44,1.83A8.28,8.28,0,0,1,55.25,134v1.18a4.49,4.49,0,0,1-.11.82H44.2a6.94,6.94,0,0,0,1.5,4.49,5.4,5.4,0,0,0,4.1,1.46,14,14,0,0,0,2.34-.22,15,15,0,0,0,2.47-.66l.15,1.62a13.11,13.11,0,0,1-2.56.71A14.57,14.57,0,0,1,49.56,143.6Zm-.27-15.24c-3.14,0-4.83,2-5,6.08h9.17a8.4,8.4,0,0,0-1-4.66A3.57,3.57,0,0,0,49.29,128.36Z"/><path class="cls-1" d="M59.75,127h1.69l.16,1.91h.15c.8-.38,1.54-.71,2.2-1s1.28-.51,1.84-.69a11.47,11.47,0,0,1,1.53-.4,9.57,9.57,0,0,1,1.41-.11,4.22,4.22,0,0,1,3.18,1.1A4.64,4.64,0,0,1,73,131.18v12.19h-2V131.84a3.81,3.81,0,0,0-.71-2.57,2.81,2.81,0,0,0-2.16-.77,9.34,9.34,0,0,0-2.87.53,24.44,24.44,0,0,0-3.42,1.43v12.82h-2Z"/><path class="cls-1" d="M79.28,123.35a1.19,1.19,0,0,1-1.35-1,2.44,2.44,0,0,1,0-.27,1.36,1.36,0,0,1,2.72,0,1.19,1.19,0,0,1-1.08,1.29A1.29,1.29,0,0,1,79.28,123.35Zm-1,3.65h2v16.33h-2Z"/><path class="cls-1" d="M89.61,143.63c-2.68,0-4-1.49-4-4.45V127h2v11.54a4.05,4.05,0,0,0,.62,2.56,2.44,2.44,0,0,0,2,.77,8.63,8.63,0,0,0,3.17-.61c1.07-.41,2.18-.9,3.32-1.47V127h2.07v16.33H97.14l-.16-2h-.11l-2.22,1c-.63.29-1.22.53-1.77.73a10.49,10.49,0,0,1-1.58.42A9.48,9.48,0,0,1,89.61,143.63Z"/><path class="cls-1" d="M104.19,127h1.66l.18,1.91h.12a25.59,25.59,0,0,1,3.3-1.68,7.1,7.1,0,0,1,2.57-.52,3.62,3.62,0,0,1,3.84,2.27H116c.69-.43,1.31-.78,1.86-1.07s1-.48,1.54-.69a8.25,8.25,0,0,1,1.28-.4,6.92,6.92,0,0,1,1.28-.11,4.17,4.17,0,0,1,3.14,1.08,4.64,4.64,0,0,1,1.07,3.37v12.18h-2V131.81a3.66,3.66,0,0,0-.71-2.56,2.83,2.83,0,0,0-2.16-.76A6.56,6.56,0,0,0,119,129a17.93,17.93,0,0,0-2.77,1.39v12.95h-2.05V131.78a3.68,3.68,0,0,0-.71-2.56,2.83,2.83,0,0,0-2.16-.76A6.79,6.79,0,0,0,109,129a17.62,17.62,0,0,0-2.74,1.39v13h-2Z"/><path class="cls-1" d="M79.41,67.55a7.82,7.82,0,0,0-8,6.94.26.26,0,0,0,.18.31H87.2a.25.25,0,0,0,.25-.25v0A7.58,7.58,0,0,0,79.41,67.55Z"/><path class="cls-1" d="M112.73,15.42l-33,37a1,1,0,0,1-1.42.06l0-.06L61.44,35.08a1,1,0,0,1,0-1.26L67,26.69a1,1,0,0,1,1.41-.23,1.67,1.67,0,0,1,.23.23l9.42,10.43a1,1,0,0,0,1.41.12l.13-.12,26.25-36a.71.71,0,0,0-.19-1,.72.72,0,0,0-.38-.13H12.83a.78.78,0,0,0-.78.79V106a.78.78,0,0,0,.78.78H113.32a.78.78,0,0,0,.79-.78V15.89a.73.73,0,1,0-1.38-.47ZM40.5,95.06a25.39,25.39,0,0,1-18-6.28,1,1,0,0,1,0-1.29L26.4,82a1,1,0,0,1,1.33-.36h0A19.3,19.3,0,0,0,40.94,86.8c5.15,0,7.66-2.39,7.66-4.9,0-7.79-25.37-2.45-25.37-19,0-7.32,6.28-13.41,16.7-13.41A24.75,24.75,0,0,1,56.42,55a1,1,0,0,1,0,1.35l-3.86,5.37a1,1,0,0,1-1.37.2.1.1,0,0,0,0,0,19,19,0,0,0-12-4.15c-4,0-6.29,1.79-6.29,4.43,0,7,25.32,2.32,25.32,18.84,0,8-5.75,14.07-17.65,14.07ZM95.83,79.77a.85.85,0,0,1-.81.88H71.71a.28.28,0,0,0-.25.31h0a8.82,8.82,0,0,0,9.42,7.28,14.47,14.47,0,0,0,8-2.63.85.85,0,0,1,1.2.1l.06.09L93,89.91a.88.88,0,0,1-.19,1.16,21,21,0,0,1-12.88,4A16.58,16.58,0,0,1,62.46,79.46c0-.53,0-1,0-1.58A16.68,16.68,0,0,1,78.64,60.74c.26,0,.51,0,.77,0,9.76,0,16.39,7.31,16.39,18Z"/></svg>